HIERARCHY
ROOT Hips
{
  OFFSET -85.5979 91.3369 90.3784
  CHANNELS 6 Xposition Yposition Zposition Zrotation Xrotation Yrotation
  JOINT RightUpLeg
  {
    OFFSET -8.9458 -8.66707 0.101652
    CHANNELS 3 Zrotation Xrotation Yrotation
    JOINT RightLeg
    {
      OFFSET 0 -44.4227 1.3727
      CHANNELS 3 Zrotation Xrotation Yrotation
      JOINT RightFoot
      {
        OFFSET 0.253549 -42.0924 -1.46059
        CHANNELS 3 Zrotation Xrotation Yrotation
        JOINT RightToes
        {
          OFFSET 0.04 -4.41509 8.4991
          CHANNELS 3 Zrotation Xrotation Yrotation
          End Site
          {
            OFFSET -0.08 -0.137448 9.77979
          }
        }
      }
    }
  }
  JOINT Spine
  {
    OFFSET 0 11.8905 0
    CHANNELS 3 Zrotation Xrotation Yrotation
    JOINT Spine1
    {
      OFFSET 0 25.6574 0.127663
      CHANNELS 3 Zrotation Xrotation Yrotation
      JOINT HEad
      {
        OFFSET 0 8.73416 0.011341
        CHANNELS 3 Zrotation Xrotation Yrotation
        End Site
        {
          OFFSET -0.29 12.7742 2.51395
        }
      }
      JOINT LeftShoulder1
      {
        OFFSET 8.99 -0.362252 -0.22
        CHANNELS 3 Zrotation Xrotation Yrotation
        JOINT LeftArm
        {
          OFFSET 10.2827 -0.00338 0.322123
          CHANNELS 3 Zrotation Xrotation Yrotation
          JOINT LeftForeArm
          {
            OFFSET 32.7669 0.099144 -1.42434
            CHANNELS 3 Zrotation Xrotation Yrotation
            JOINT LeftHand
            {
              OFFSET 27.5643 0.085362 1.02216
              CHANNELS 3 Zrotation Xrotation Yrotation
              End Site
              {
                OFFSET 16.7443 -0.6 1.50291
              }
            }
          }
        }
      }
      JOINT RightShoulder
      {
        OFFSET -8.99 -0.362252 -0.22
        CHANNELS 3 Zrotation Xrotation Yrotation
        JOINT RightArm
        {
          OFFSET -10.2827 -0.00338 0.322123
          CHANNELS 3 Zrotation Xrotation Yrotation
          JOINT RightForeArm
          {
            OFFSET -32.8971 0.099144 -1.42434
            CHANNELS 3 Zrotation Xrotation Yrotation
            JOINT RightHand
            {
              OFFSET -27.4921 0.085362 1.02216
              CHANNELS 3 Zrotation Xrotation Yrotation
              End Site
              {
                OFFSET -16.6312 -0.6 1.50291
              }
            }
          }
        }
      }
    }
  }
  JOINT LeftUpLeg
  {
    OFFSET 8.9458 -8.66707 0.101652
    CHANNELS 3 Zrotation Xrotation Yrotation
    JOINT LeftLeg
    {
      OFFSET 0 -44.4227 1.3727
      CHANNELS 3 Zrotation Xrotation Yrotation
      JOINT LeftFoot
      {
        OFFSET -0.253549 -42.0924 -1.46059
        CHANNELS 3 Zrotation Xrotation Yrotation
        JOINT LeftToes
        {
          OFFSET -0.04 -4.41509 8.4991
          CHANNELS 3 Zrotation Xrotation Yrotation
          End Site
          {
            OFFSET 0.08 -0.047448 9.77979
          }
        }
      }
    }
  }
}
MOTION
Frames:	9
Frame Time:	0.0166667
-85.5979 91.3369 90.3784 -4.60979 1.44067 -134.279 -20.0523 -22.4119 1.47756 -2.93489 17.263 12.1587 32.6686 29.644 -10.8171 -41.7451 -37.1993 1.12889 0.940624 7.3533 0.958013 0.745877 14.5605 1.88514 -0.151793 -12.1206 -17.0939 -1.59028e-015 -1.59028e-015 -0 -64.762 -1.81963 -21.4963 5.63953 11.9399 -129.177 2.30642 9.88077 3.21587 14.0399 -0.173381 -3.66021 92.4216 -47.1601 81.5562 -23.3069 25.0891 129.564 22.037 3.61611 -34.9838 23.7342 0.800525 -10.0776 -20.6467 36.7882 47.9167 17.6902 40.3382 -7.81547 57.0986 -49.8238 31.6075 
-87.1856 91.5817 90.4346 -3.41451 0.631808 -137.661 -19.5656 -23.7232 2.15815 -3.03682 15.9118 14.8806 32.3588 26.9234 -9.92664 -38.083 -34.6215 2.43247 1.38565 6.95864 -0.650051 1.95862 13.7819 -1.28663 -2.39705 -12.0652 -10.2818 3.18055e-015 6.36111e-015 -0 -64.6331 -8.97238 -25.6384 2.03562 18.3599 -127.926 3.62427 9.84375 2.22759 17.7757 -0.449282 -4.71811 88.9826 -42.6391 76.3686 -18.3254 27.0983 137.897 15.1321 6.22835 -30.4745 23.9243 2.27673 -9.2791 -24.5145 34.5058 51.6353 17.5325 34.8604 -6.81774 50.6527 -47.5763 26.656 
-88.5598 91.6061 90.508 -2.29502 0.0704491 -139.887 -19.0973 -24.8049 2.55602 -3.14907 15.2545 16.7265 32.0087 24.8756 -9.235 -35.907 -32.9388 3.01662 1.96281 6.70793 -2.43784 3.29713 13.233 -4.81883 -4.42864 -12.0964 -3.86057 8.82781e-032 -1.59028e-015 3.18055e-015 -64.6452 -17.9072 -34.5814 -0.907983 25.835 -124.297 5.07559 9.82157 2.33037 20.7379 -0.773205 -5.78964 83.9139 -37.8588 71.5979 -14.0727 27.9373 143.891 9.45615 7.92941 -26.4271 24.4561 3.45375 -8.11015 -27.264 32.6938 53.3174 16.6049 29.7793 -5.66399 45.4373 -45.0246 23.2389 
-89.6844 91.3839 90.6188 -1.31068 -0.186676 -141.064 -18.6943 -25.7433 2.91671 -3.26869 15.4049 17.5213 31.9264 23.7937 -8.90629 -35.4755 -32.6008 3.13059 2.4931 6.60761 -4.27793 4.46274 12.9351 -8.4805 -5.51252 -12.0928 2.05365 -1.59028e-015 0 -0 -66.1859 -26.2648 -47.9528 -1.94312 32.0025 -117.829 6.35446 9.83585 3.07577 22.4833 -0.973327 -6.34478 80.1035 -32.9914 68.8751 -11.2142 27.5875 147.975 5.07171 8.93244 -23.5028 25.3554 4.29715 -6.73193 -29.2002 31.7098 53.4686 15.2805 26.002 -4.68166 42.6696 -43.1162 22.125 
-90.5908 90.9507 90.7964 -0.419329 -0.103141 -141.318 -18.4026 -26.4894 3.62931 -3.17183 16.2041 16.9868 32.0274 23.5324 -8.86243 -36.3291 -33.2996 2.96267 2.92904 6.61414 -6.00851 5.25579 12.8066 -11.953 -5.17481 -11.8125 7.2441 -1.59028e-015 0 -0 -68.3055 -30.7897 -63.9182 0.515844 35.4367 -108.58 7.1572 9.89202 4.24534 23.2418 -0.99791 -6.31537 78.8735 -28.9106 68.341 -9.66536 26.869 150.549 2.49165 9.4079 -21.9451 26.7142 4.7108 -5.55153 -30.7492 31.6247 52.5622 13.4798 24.0295 -3.89674 42.8777 -42.5253 23.455 
-91.3491 90.3563 91.0349 0.422984 0.29524 -140.738 -18.3295 -27.0022 4.82735 -2.59392 17.5549 15.0808 32.0858 23.5269 -8.87788 -37.6864 -34.3843 2.65972 3.2458 6.66387 -7.49618 5.64163 12.7525 -14.9546 -3.55758 -11.193 11.438 -1.59028e-015 -3.18055e-015 3.18055e-015 -67.6864 -30.4866 -79.0362 6.99586 37.5771 -96.6236 7.41146 9.99845 6.09824 23.2959 -0.891298 -5.88372 79.9289 -26.0276 69.2173 -9.08727 26.3381 151.86 2.05593 9.47956 -21.7424 28.5809 4.55419 -4.95114 -32.2462 32.4351 50.6156 10.6977 23.7052 -3.0878 45.7861 -43.1567 26.835 
-92.0438 89.6763 91.3027 1.1984 0.928938 -139.438 -18.589 -27.2171 6.29679 -1.39347 19.2918 12.1367 31.9267 23.132 -8.72096 -38.7375 -35.2097 2.41057 3.47736 6.70304 -8.66883 5.73692 12.6922 -17.3251 -1.45437 -10.4465 14.3571 7.95139e-016 -3.18055e-015 3.18055e-015 -52.5553 -24.8597 -86.6693 15.9069 31.2623 -79.2525 5.24295 10.1027 9.64038 22.6146 -0.686936 -5.15749 81.9889 -24.0877 70.5223 -9.20303 25.9165 152.147 3.35289 9.25527 -22.5209 30.8543 3.76814 -5.01215 -33.7382 34.078 47.1697 6.31497 24.4837 -1.93247 50.6234 -44.5275 31.4159 
-92.7465 89.023 91.5653 1.8083 1.67708 -137.628 -19.246 -26.9946 7.72543 0.398418 21.022 8.71416 31.4022 22.025 -8.26627 -38.9251 -35.3122 2.28876 3.68194 6.70231 -9.48913 5.67018 12.5811 -18.9795 0.0998489 -9.87841 15.7988 7.95139e-016 -3.18055e-015 -0 -24.6991 -19.0079 -89.248 22.9903 19.3785 -54.8111 0.298694 9.85972 14.0109 21.0778 -0.40568 -4.14877 83.9345 -22.9103 71.5854 -9.7265 25.6128 151.733 5.61396 8.82706 -23.7618 33.2699 2.48326 -5.48861 -34.9713 36.3418 41.5857 -0.0188798 25.6733 -0.164948 56.182 -46.3378 35.7016 
-93.4885 88.505 91.7737 2.09368 2.39783 -135.577 -20.2766 -26.2163 8.90002 2.53296 22.3879 5.43025 30.3421 20.2647 -7.50896 -38.1075 -34.4986 2.17351 3.78531 6.65041 -9.92865 5.42752 12.429 -19.8498 0.42387 -9.5709 15.7495 -1.59028e-015 3.18055e-015 3.18055e-015 -3.29213 -17.4336 -92.663 24.4204 15.0848 -35.1553 -4.35222 9.30876 17.6659 18.8742 -0.0977172 -2.91605 85.376 -22.6566 72.0892 -10.3332 25.7852 150.98 8.17217 8.29349 -24.9993 35.5217 1.00116 -6.0759 -35.6047 38.8388 33.512 -7.8894 26.4401 2.17184 60.3757 -48.5556 37.3607 
